<svg width="269" height="279" viewBox="0 0 269 279" fill="none" xmlns="http://www.w3.org/2000/svg">
<path d="M115.933 5.29413C115.933 5.29413 139.638 22.2884 123.724 26.7041C107.81 31.1199 72.8723 27.6617 87.5281 51.4211C102.18 75.1879 80.62 77.6098 73.2957 84.7722C63.1284 94.7182 66.5604 120 100.836 131.647C135.112 143.294 143.355 123.337 177.619 134.988C211.876 146.633 209.405 181.224 206.404 196.314C203.398 211.411 184.022 225.189 163.984 225.201C143.945 225.212 143.52 197.64 159.789 202.518C176.05 207.391 190.347 241.438 172.578 256.473C154.82 271.504 114.793 271.545 132.815 232.39" stroke="#FF8D8A" stroke-width="1.26" stroke-miterlimit="10" stroke-linecap="round" stroke-linejoin="round"/>
</svg>
