<svg width="75" height="89" viewBox="0 0 75 89" fill="none" xmlns="http://www.w3.org/2000/svg">
<path d="M9.28415 61.7476C7.31759 59.248 5.55054 56.5556 4.25375 53.6418C2.71471 49.8924 1.90243 45.9073 1.6958 41.8794C2.09481 41.1795 4.51739 36.9302 6.14906 34.909C7.93036 32.7023 10.3316 28.4958 9.46228 23.9108C8.86376 20.7685 8.18687 18.9473 7.81636 18.1117C8.27237 17.5118 8.76401 16.9334 9.29128 16.3834C10.2959 15.4122 11.379 14.4052 12.7541 14.0053C13.9725 13.6267 15.3976 13.8696 16.3452 14.7409C17.7917 16.1906 17.3071 18.476 16.6445 20.1971C15.6185 22.7039 14.0723 24.9535 12.8396 27.3603C9.9468 32.8594 7.5741 38.8156 7.30334 45.0931C7.23922 48.6068 7.41022 52.3205 8.90652 55.5486C8.96352 55.6343 9.02052 55.6986 9.08465 55.7557C9.09177 57.8839 10.0323 59.955 11.1296 61.7476C12.7185 64.2686 14.7207 66.504 16.1101 69.1536C16.1671 69.2535 16.217 69.3607 16.2669 69.4606C14.0438 66.8039 11.4573 64.4614 9.28415 61.7476Z" fill="#FF8B87"/>
<path d="M70.4897 59.298C68.2809 65.4899 64.4761 71.0247 59.7592 75.574C56.0897 75.0312 45.0171 73.6529 38.3693 75.7668C31.7143 77.8808 24.9454 85.4081 22.8007 87.9577C21.2046 87.1507 19.6656 86.208 18.3474 84.9939C17.0079 83.7798 15.875 82.3658 14.7777 80.9303C13.317 78.9663 11.8777 76.8238 11.3362 74.4027C10.9372 72.0603 13.089 71.9246 14.4214 73.2815C15.7467 74.4956 16.6587 76.2239 18.326 77.0166C21.0051 78.2664 23.2638 75.6311 25.2731 74.2242C27.7598 72.3602 30.4674 70.7033 33.4315 69.7178C36.7162 68.7608 40.3501 69.1536 43.364 70.7605C44.5682 71.4246 45.7724 72.1531 46.6986 73.1887C47.0264 73.5815 47.0763 74.1171 47.7104 74.1314C48.1949 74.1599 48.6082 73.7171 48.5655 73.2386C48.5227 72.6959 48.0168 72.1245 47.6249 71.7246C44.4542 68.7465 40.0009 67.1682 35.6617 67.5967C31.1158 68.068 27.1328 70.739 23.5702 73.4457C22.4658 74.2456 21.4113 75.2883 20.0789 75.674C20.0076 75.6811 19.9363 75.6811 19.8651 75.6811C19.7226 74.1599 19.3592 72.6602 18.8462 71.2175C17.6919 67.8895 15.5258 65.0899 13.4809 62.2761C12.4192 60.7692 11.3576 59.0338 10.9372 57.1841C10.6166 55.8771 10.5952 53.2633 12.2625 52.9348C13.9868 53.4561 14.5568 55.97 15.1197 57.484C15.4546 58.3839 15.6968 59.4623 16.559 60.0122C17.2288 60.4407 18.1408 60.1907 18.6324 59.6051C19.7368 58.1339 20.8412 56.6056 22.3732 55.5343C25.0879 53.5918 28.5721 52.8134 31.8568 53.4347C33.0182 53.6204 34.0941 54.0917 35.0489 54.7488C35.0204 54.713 34.9919 54.6773 34.9634 54.6416C34.9492 54.6202 34.942 54.5988 34.9278 54.5774C34.9634 54.6416 35.0062 54.6988 35.056 54.7559C35.1629 54.8273 35.2698 54.9059 35.3696 54.9844C35.6902 55.113 36.0037 55.0273 36.2175 54.8345C36.8659 54.6059 37.5784 53.6561 38.07 53.2419C40.5282 50.8494 42.1599 47.6999 43.0719 44.4147C45.3164 35.9732 40.4855 27.1817 35.0774 20.9685C34.7212 20.5614 34.3435 20.1686 33.9659 19.7829C33.745 19.5544 33.5099 19.3473 33.2961 19.1116C33.1607 18.9616 32.6477 18.476 32.9114 18.2832C33.5028 17.8404 34.4932 18.1046 35.1344 18.2689C36.3457 18.576 37.5071 19.0616 38.6543 19.5544C39.1174 19.7544 39.5877 19.9543 40.0508 20.1472C40.3786 20.2829 40.7206 20.4471 41.0697 20.5328C42.5518 21.0684 43.7773 19.683 44.8603 18.8688C46.264 17.7118 47.6534 16.5477 49.0642 15.4051C49.7696 14.8409 50.4964 14.2767 51.2517 13.7125C51.3372 13.6411 51.4298 13.5696 51.5295 13.5054C51.5295 13.5054 58.7189 17.4333 64.2267 13.9482C66.2645 16.8477 67.9175 20.0329 69.2286 23.3181C70.7249 27.2746 72.0145 31.3382 72.7556 35.509C72.8981 36.3731 73.0192 37.2373 73.1189 38.1086C73.2116 38.5085 73.1332 39.0013 73.2401 39.4084C73.2401 39.4512 73.2401 39.5012 73.2401 39.544C73.2828 40.751 73.2971 41.9651 73.3113 43.172C73.3541 48.6354 72.2639 54.1131 70.4897 59.298Z" fill="#FF8B87"/>
<path d="M35.0845 52.8919L35.0774 52.8848C35.0988 52.9062 35.1131 52.9276 35.1344 52.9419C35.1131 52.9348 35.0988 52.9133 35.0845 52.8919Z" fill="#1268AE"/>
<path d="M48.5441 38.4869C47.7674 38.4512 46.6844 38.5869 46.9053 39.6224C47.1903 40.5437 48.1949 40.0723 48.8861 40.1652C51.6507 40.2509 53.945 42.2006 54.8071 44.7859C55.4912 46.7141 55.4057 48.7995 55.3344 50.8135C55.2133 53.4202 54.6575 56.1412 53.033 58.248C52.8548 58.4551 52.6696 58.6408 52.4772 58.805C52.4914 57.591 52.2278 55.8841 52.1566 55.2842C51.843 54.2915 50.3824 54.62 50.532 55.6484C50.703 56.9196 50.8384 58.198 50.7814 59.4764C50.7814 59.5264 50.7814 59.5692 50.7885 59.6121C50.3396 59.6978 49.8836 59.6906 49.4419 59.5835C49.5416 58.1766 49.5274 56.7697 49.4276 55.3699C49.3991 54.3558 47.9384 54.2558 47.7746 55.2485C47.7461 55.7841 47.8458 56.334 47.8387 56.8768C47.8529 57.4838 47.8529 58.0837 47.8316 58.6908C47.5323 58.4051 47.2687 58.0552 47.0478 57.6409C46.3638 56.3483 46.3638 54.8485 46.3923 53.4273C46.4706 51.3705 46.6701 49.2994 46.4136 47.2426C46.2355 46.1571 44.6395 46.3999 44.7606 47.4854C45.01 49.4494 44.7891 51.4348 44.725 53.3988C44.6323 55.5341 44.8532 57.8623 46.3353 59.5264C47.119 60.4119 48.1664 61.0904 49.3421 61.2832C52.7052 61.8617 55.1064 59.0122 56.0469 56.0841C56.8165 53.9915 57.016 51.7419 57.0445 49.528C57.0516 48.3496 57.0373 47.1641 56.8449 46C56.1609 41.7864 52.9403 38.4583 48.5441 38.4869Z" fill="#1268AE"/>
<path d="M71.3305 45.0431C70.2974 44.5432 69.9411 45.9215 69.5777 46.6071C68.6301 48.7497 68.4662 51.1207 68.0315 53.3989C67.7252 55.0344 67.262 56.6698 66.35 58.0767C66.3215 58.1267 66.2859 58.1696 66.2574 58.2196C66.236 57.4483 66.2217 56.6698 66.1932 55.8985C66.179 55.4986 66.1362 55.1058 66.122 54.7058C66.1505 54.4844 66.0864 54.2488 65.9439 54.0702C65.4308 53.4275 64.3977 53.8703 64.4547 54.6773C64.5544 56.277 64.5758 57.8839 64.6257 59.4908C64.6257 59.5408 64.6328 59.5908 64.6399 59.6336C64.1626 59.8336 63.6709 59.8764 63.1864 59.7479C63.2149 59.6622 63.2292 59.5693 63.222 59.4694C63.1793 58.2838 63.1864 57.0983 63.1722 55.9128C63.165 55.5343 63.1793 55.1701 63.1579 54.7915C62.9798 53.7631 61.4835 53.906 61.4977 54.9344C61.5048 56.1056 61.512 57.2769 61.5262 58.4481C59.5882 55.6271 60.2152 49.8709 60.7496 46.6C61.2198 43.779 62.2174 40.9152 64.3906 38.9584C65.4593 37.9657 66.7775 37.0372 68.2738 36.9444C69.2072 37.073 69.6632 35.6446 68.5873 35.309C64.982 35.0804 61.2982 39.1798 60.1582 42.3578C58.954 45.6716 58.5621 49.2424 58.5835 52.7562C58.5408 56.1199 59.3958 60.7549 63.2862 61.4905C65.1886 61.7404 66.9058 60.3978 67.8463 58.8409C69.4566 56.3199 69.7202 53.2704 70.2332 50.3851C70.4399 49.2639 70.7106 48.1426 71.188 47.1071C71.4873 46.4286 72.214 45.593 71.3305 45.0431Z" fill="#1268AE"/>
<path d="M74.9854 40.351C74.9711 39.2869 74.9498 38.2157 74.907 37.1515C74.907 37.0801 74.8999 37.0087 74.8999 36.9373C74.8999 36.8873 74.8928 36.8373 74.8928 36.7945C74.8999 36.6945 74.8785 36.6016 74.85 36.5159C74.8073 36.2017 74.7574 35.9017 74.7503 35.6518C74.3228 32.0024 73.3822 28.4315 72.2564 24.9392C70.3683 19.1401 67.7462 13.4625 63.8273 8.74896C62.2598 6.88497 53.6311 -2.22071 51.4223 0.507427C50.8951 1.27159 51.3154 5.70659 51.3653 7.02067C51.3796 7.8991 51.5149 8.78467 51.4081 9.6631C49.4059 11.1486 47.5747 12.5841 45.6295 14.2124C44.4111 15.1694 43.2924 16.3049 41.9387 17.0762C41.7463 17.1905 41.5468 17.0548 41.3615 16.9905C40.8414 16.7834 40.3212 16.5691 39.8011 16.3477C37.6137 15.5479 33.5309 13.3054 31.5857 15.3693C31.1653 15.8264 31.0442 16.5691 31.258 17.169C31.3363 17.8761 32.2697 18.4331 32.683 18.9759C34.5783 20.9113 36.2599 23.0609 37.7063 25.3463C40.0006 29.0886 41.7962 33.3164 42.0099 37.7443C42.0954 41.3509 40.8057 44.8717 38.8819 47.8713C37.9485 49.1639 36.9368 50.2423 35.7183 51.3278C34.0795 50.1352 31.8921 49.7924 29.9042 49.6995C24.5603 49.5853 20.2923 52.2991 17.3709 56.6556C16.3591 54.763 16.1596 52.4348 14.6918 50.7851C12.9818 48.614 10.7872 49.2353 9.74695 51.0922C9.19118 49.0853 9.04867 46.9643 8.97742 44.8932C8.87054 39.3298 10.6376 33.9306 13.0103 28.96C14.0221 26.8103 15.1764 24.725 16.3591 22.6682C17.8554 20.0114 19.5726 16.9476 18.7675 13.791C18.283 11.9484 16.6157 10.6058 14.7488 10.3701C12.1125 9.93449 9.7612 11.6485 8.03689 13.4625C4.41016 17.2619 2.40798 22.2896 1.26794 27.3531C-0.848247 36.3231 -0.520487 46.2501 3.76889 54.5487C5.64995 58.0053 8.00839 61.212 10.7373 64.0472C12.4902 65.8612 14.243 67.6895 15.8176 69.6678C16.3591 70.3748 17.0075 71.2675 17.378 72.1816C17.0218 71.746 16.6798 71.3032 16.3235 70.9604C15.8176 70.4033 15.269 69.882 14.6348 69.4749C12.8607 68.3965 10.3882 68.8107 9.79682 71.0104C9.45481 72.2816 9.8182 73.6385 10.3312 74.8169C11.3145 77.088 12.6754 79.1734 14.2501 81.0802C16.2024 83.6798 18.6748 85.8437 21.5463 87.3506C25.1232 88.7933 27.3177 88.8361 29.0634 88.9504C40.4566 89.6431 51.3012 83.8369 59.5166 76.2881C66.5349 70.0177 71.6864 61.8262 73.6672 52.5419C74.6291 48.5497 75.0923 44.4647 74.9854 40.351ZM32.6046 16.4406C32.5975 16.4406 32.5975 16.4334 32.5904 16.4334H32.5975C32.626 16.4477 32.6616 16.4692 32.6901 16.4834C32.6901 16.4834 32.6901 16.4834 32.683 16.4834C32.683 16.4834 32.683 16.4834 32.6901 16.4834C32.7044 16.4906 32.7115 16.5049 32.7258 16.512C32.6901 16.4906 32.6474 16.462 32.6046 16.4406ZM9.31231 59.8979C7.34575 57.3983 5.5787 54.7059 4.28191 51.792C2.74286 48.0426 1.93059 44.0576 1.72396 40.0297C2.11584 39.3298 4.54554 35.0804 6.17721 33.0593C7.95852 30.8526 10.3597 26.6461 9.49044 22.0611C8.89192 18.9188 8.21502 17.0976 7.84451 16.262C8.30053 15.6621 8.79217 15.0837 9.31943 14.5337C10.3241 13.5625 11.4071 12.5555 12.7823 12.1556C14.0007 11.777 15.4257 12.0199 16.3734 12.8912C17.8198 14.3409 17.3353 16.6263 16.6727 18.3474C15.6466 20.8542 14.1005 23.1038 12.8678 25.5106C9.97495 31.0097 7.60226 36.9659 7.3315 43.2434C7.26737 46.7571 7.43838 50.4708 8.93467 53.6989C8.99167 53.7846 9.04867 53.8489 9.1128 53.906C9.11993 56.0342 10.0605 58.1053 11.1577 59.8979C12.7467 62.4189 14.7488 64.6543 16.1383 67.3038C16.1953 67.4038 16.2451 67.511 16.295 67.6109C14.0719 64.9542 11.4855 62.6117 9.31231 59.8979ZM70.5179 57.4483C68.3091 63.6401 64.5042 69.175 59.7873 73.7242C56.1178 73.1815 45.0452 71.8031 38.3974 73.9171C31.7425 76.031 24.9735 83.5584 22.8288 86.108C21.2328 85.301 19.6937 84.3582 18.3756 83.1442C17.036 81.9301 15.9031 80.516 14.8058 79.0805C13.3452 77.1166 11.9059 74.974 11.3644 72.553C10.9654 70.2105 13.1172 70.0748 14.4496 71.4317C15.7749 72.6458 16.6869 74.3741 18.3542 75.1669C21.0333 76.4167 23.292 73.7814 25.3013 72.3745C27.788 70.5105 30.4956 68.8536 33.4597 67.868C36.7373 66.911 40.3782 67.3038 43.3922 68.9107C44.5964 69.5749 45.8005 70.3034 46.7268 71.3389C47.0546 71.7317 47.1044 72.2673 47.7386 72.2816C48.2231 72.3102 48.6364 71.8674 48.5936 71.3889C48.5509 70.8461 48.045 70.2748 47.6531 69.8749C44.4824 66.8968 40.0291 65.3184 35.6898 65.7469C31.144 66.2183 27.161 68.8893 23.5984 71.596C22.4939 72.3959 21.4394 73.4386 20.107 73.8242C20.0358 73.8314 19.9645 73.8314 19.8932 73.8314C19.7507 72.3102 19.3874 70.8104 18.8743 69.3678C17.7201 66.0398 15.554 63.2402 13.5091 60.4264C12.4474 58.9195 11.3857 57.184 10.9654 55.3343C10.6447 54.0274 10.6233 51.4135 12.2906 51.085C14.0149 51.6064 14.585 54.1202 15.1479 55.6343C15.4827 56.5341 15.725 57.6125 16.5872 58.1625C17.2569 58.591 18.1689 58.341 18.6606 57.7554C19.765 56.277 20.8694 54.7559 22.4013 53.6846C25.116 51.7421 28.6003 50.9636 31.885 51.5849C33.0464 51.7706 34.1223 52.242 35.0771 52.899C35.0486 52.8633 35.0201 52.8276 34.9916 52.7919C34.9773 52.7705 34.9702 52.749 34.956 52.7276C34.9916 52.7919 35.0343 52.849 35.0842 52.9062C35.1911 52.9776 35.298 53.0561 35.3977 53.1347C35.7183 53.2632 36.0319 53.1775 36.2456 52.9847C36.894 52.7562 37.6065 51.8063 38.0982 51.3921C40.5564 48.9996 42.188 45.8501 43.1001 42.565C45.3445 34.1235 40.5136 25.332 35.1056 19.1187C34.7493 18.7116 34.3717 18.3189 33.994 17.9332C33.7732 17.7047 33.538 17.4976 33.3243 17.2619C33.1889 17.1119 32.6759 16.6263 32.9395 16.4334C33.5309 15.9835 34.5213 16.2549 35.1626 16.4192C36.3739 16.7263 37.5353 17.2119 38.6824 17.7047C39.1456 17.9046 39.6158 18.1046 40.079 18.2974C40.4067 18.4331 40.7487 18.5974 41.0979 18.6831C42.5799 19.2187 43.8055 17.8332 44.8885 17.0191C46.2922 15.8621 47.6816 14.698 49.0924 13.5553C49.7978 12.9911 50.5245 12.4269 51.2798 11.8627C51.3653 11.7913 51.4579 11.7199 51.5577 11.6556C51.5577 11.6556 58.747 15.5836 64.2548 12.0984C66.2926 14.998 67.9457 18.1832 69.2567 21.4683C70.753 25.4249 72.0427 29.4885 72.7837 33.6592C72.9262 34.5234 73.0473 35.3875 73.1471 36.2588C73.2397 36.6588 73.1613 37.1515 73.2682 37.5586C73.2682 37.6015 73.2682 37.6515 73.2682 37.6943C73.311 38.9013 73.3252 40.1154 73.3395 41.3223C73.3822 46.7857 72.2921 52.2634 70.5179 57.4483Z" fill="#1268AE"/>
<path d="M61.4835 16.0979C62.0321 15.8051 62.709 15.7265 62.6164 14.9123C62.2957 13.6768 61.0132 14.4053 60.3149 14.8409C59.3031 15.4765 58.3911 16.2764 57.6501 17.2191C56.7737 18.3475 56.2251 19.7187 56.0255 21.1328C55.9614 21.5827 56.3319 22.0041 56.7666 22.0541C57.7997 22.1398 57.6715 20.9257 57.928 20.2472C58.1631 19.4902 58.5407 18.7832 59.0324 18.1618C59.7093 17.3262 60.5501 16.6264 61.4835 16.0979Z" fill="#1268AE"/>
<path d="M49.2281 25.082C49.848 25.4605 50.6603 24.7749 50.418 24.0964C50.1829 23.3537 47.9242 22.561 47.1618 22.5538C45.4802 22.4896 43.8058 23.118 42.4306 24.0679C42.0245 24.3821 41.4616 24.6963 41.4687 25.2748C41.4545 26.0176 42.4876 26.3746 42.9294 25.7962C43.4994 25.2962 44.1692 24.932 44.8675 24.6535C46.4849 23.975 47.7603 24.1179 49.2281 25.082ZM43.0363 25.6533C43.0078 25.7033 42.9722 25.7533 42.9365 25.7962C43.0078 25.7105 43.0577 25.6176 43.0933 25.5105C43.079 25.5605 43.0577 25.6033 43.0363 25.6533Z" fill="#1268AE"/>
<path d="M35.2769 28.4316C37.0369 29.5957 37.0012 27.6317 36.5238 26.9532C32.6905 18.8688 21.112 20.7828 17.0221 27.6746C12.3195 34.8448 16.6516 45.8716 25.5083 46.6001C31.3937 47.0929 36.8801 44.1505 38.5332 38.2586C38.8253 37.4516 39.2314 36.1446 38.1128 35.809C37.2221 35.6019 36.4455 36.2803 35.7258 36.6945C33.8804 37.9158 31.6787 39.3155 29.3986 38.4728C28.1802 38.0229 27.2896 37.0016 26.577 35.9518C25.3373 34.0592 25.6864 31.4954 27.2183 29.8742C29.1706 27.6246 32.6477 27.2032 35.2769 28.4316Z" fill="#1268AE"/>
<path d="M53.7312 24.3963C52.5983 24.9677 53.0472 26.0604 54.002 26.5246C54.4153 26.7531 54.857 26.9031 55.2917 27.0888C55.541 27.1888 55.7762 27.3387 56.0541 27.3602C57.6002 27.3102 57.2867 25.1534 57.1656 24.0964C56.6953 22.3038 54.6789 23.9036 53.7312 24.3963Z" fill="#1268AE"/>
</svg>
