<svg width="321" height="270" viewBox="0 0 321 270" fill="none" xmlns="http://www.w3.org/2000/svg">
<path opacity="0.1" d="M-35.1185 255.794C-39.0019 246.968 -42.0027 236.377 -44.1209 224.021C-45.8861 211.664 -46.7686 199.308 -46.7686 186.952C-46.7686 145.294 -35.4715 108.048 -12.8772 75.216C10.0701 42.0306 44.1381 16.9651 89.3266 0.0193984C98.8586 4.60887 106.096 11.8461 111.038 21.7311C116.334 31.6161 118.452 41.5011 117.393 51.3861C105.39 57.0347 93.9161 64.2719 82.972 73.0978C72.3809 81.9237 63.3785 92.1617 55.9648 103.812C48.904 115.462 45.1972 127.995 44.8441 141.41C51.5518 142.116 59.4951 143.528 68.674 145.647C77.853 147.412 84.5607 150.06 88.7971 153.59C91.6214 158.179 93.9161 165.417 95.6813 175.302C97.7995 184.834 98.8586 194.189 98.8586 203.368C98.8586 211.841 97.976 221.549 96.2108 232.493C94.4457 243.084 91.9744 250.851 88.7971 255.794C82.7955 258.971 73.44 261.972 60.7307 264.796C48.3745 267.62 36.9008 269.033 26.3098 269.033C16.0717 269.033 4.59806 267.797 -8.11123 265.326C-20.4675 262.855 -29.4699 259.677 -35.1185 255.794ZM166.112 255.794C162.229 246.968 159.228 236.377 157.109 224.021C155.344 211.664 154.462 199.308 154.462 186.952C154.462 145.294 165.759 108.048 188.353 75.216C211.3 42.0306 245.368 16.9651 290.557 0.0193984C300.089 4.60887 307.326 11.8461 312.269 21.7311C317.564 31.6161 319.682 41.5011 318.623 51.3861C306.62 57.0347 295.146 64.2719 284.202 73.0978C273.611 81.9237 264.609 92.1617 257.195 103.812C250.134 115.462 246.428 127.995 246.075 141.41C252.782 142.116 260.725 143.528 269.904 145.647C279.083 147.412 285.791 150.06 290.027 153.59C292.852 158.179 295.146 165.417 296.912 175.302C299.03 184.834 300.089 194.189 300.089 203.368C300.089 211.841 299.206 221.549 297.441 232.493C295.676 243.084 293.205 250.851 290.027 255.794C284.026 258.971 274.67 261.972 261.961 264.796C249.605 267.62 238.131 269.033 227.54 269.033C217.302 269.033 205.828 267.797 193.119 265.326C180.763 262.855 171.76 259.677 166.112 255.794Z" fill="#FF8986"/>
</svg>
