<svg width="112" height="132" viewBox="0 0 112 132" fill="none" xmlns="http://www.w3.org/2000/svg">
<g clip-path="url(#clip0_248_103)">
<path d="M13.8643 91.5802C10.9276 87.8729 8.28882 83.8797 6.35228 79.558C4.05397 73.9971 2.84098 68.0867 2.53241 62.1127C3.12827 61.0747 6.74598 54.7723 9.18261 51.7747C11.8427 48.5017 15.4285 42.2629 14.1304 35.4627C13.2366 30.8021 12.2257 28.1011 11.6724 26.8618C12.3534 25.9721 13.0876 25.1141 13.875 24.2985C15.3753 22.858 16.9926 21.3645 19.0462 20.7713C20.8657 20.2099 22.9937 20.5701 24.4089 21.8623C26.5689 24.0125 25.8453 27.4021 24.8558 29.9548C23.3236 33.6726 21.0146 37.0092 19.1739 40.5787C14.8539 48.7347 11.3107 57.5686 10.9063 66.8792C10.8106 72.0905 11.0659 77.5985 13.3004 82.3862C13.3855 82.5133 13.4707 82.6086 13.5664 82.6933C13.5771 85.8498 14.9816 88.9216 16.6202 91.5802C18.993 95.3192 21.9829 98.6346 24.0578 102.564C24.1429 102.713 24.2174 102.871 24.2919 103.02C20.9721 99.0795 17.1096 95.6052 13.8643 91.5802Z" fill="#FF8B87"/>
<path d="M105.265 87.947C101.966 97.1304 96.2843 105.339 89.2404 112.087C83.7606 111.282 67.2255 109.237 57.2981 112.373C47.3601 115.508 37.2518 126.672 34.049 130.453C31.6656 129.257 29.3673 127.858 27.3988 126.058C25.3984 124.257 23.7066 122.16 22.068 120.031C19.8868 117.118 17.7374 113.94 16.9288 110.349C16.3329 106.875 19.5463 106.674 21.536 108.687C23.5151 110.487 24.8771 113.05 27.3669 114.226C31.3677 116.08 34.7406 112.171 37.7412 110.085C41.4547 107.32 45.498 104.863 49.9244 103.401C54.8296 101.982 60.2561 102.564 64.757 104.947C66.5552 105.933 68.3534 107.013 69.7367 108.549C70.2261 109.131 70.3006 109.926 71.2476 109.947C71.9711 109.989 72.5883 109.333 72.5244 108.623C72.4606 107.818 71.7051 106.971 71.1199 106.377C66.3849 101.96 59.7348 99.6196 53.2548 100.255C46.4663 100.954 40.5183 104.916 35.1982 108.93C33.5489 110.116 31.9742 111.663 29.9844 112.235C29.878 112.245 29.7716 112.245 29.6652 112.245C29.4524 109.989 28.9098 107.765 28.1437 105.625C26.4199 100.689 23.1853 96.5372 20.1315 92.3639C18.5461 90.129 16.9607 87.5551 16.3329 84.8117C15.8541 82.8733 15.8222 78.9966 18.312 78.5093C20.887 79.2826 21.7382 83.011 22.5788 85.2566C23.0789 86.5912 23.4406 88.1906 24.7281 89.0062C25.7283 89.6417 27.0903 89.271 27.8244 88.4024C29.4737 86.2205 31.1229 83.9537 33.4106 82.3649C37.4646 79.4838 42.6677 78.3293 47.5729 79.2508C49.3072 79.5262 50.9139 80.2253 52.3397 81.1997C52.2972 81.1468 52.2546 81.0938 52.212 81.0409C52.1908 81.0091 52.1801 80.9773 52.1588 80.9455C52.2121 81.0409 52.2759 81.1256 52.3504 81.2103C52.51 81.3163 52.6696 81.4328 52.8185 81.5493C53.2974 81.7399 53.7655 81.6128 54.0847 81.3269C55.053 80.9879 56.117 79.5791 56.8512 78.9648C60.5221 75.4164 62.9588 70.7452 64.3207 65.8728C67.6724 53.3528 60.4583 40.3139 52.3823 31.0986C51.8503 30.4949 51.2863 29.9123 50.7224 29.3403C50.3926 29.0014 50.0414 28.6942 49.7222 28.3447C49.5201 28.1222 48.7539 27.402 49.1476 27.116C50.0308 26.4593 51.5098 26.8512 52.4674 27.0948C54.2763 27.5502 56.0106 28.2705 57.7237 29.0014C58.4154 29.298 59.1176 29.5945 59.8092 29.8805C60.2987 30.0818 60.8094 30.3254 61.3308 30.4525C63.544 31.2469 65.3741 29.192 66.9915 27.9845C69.0876 26.2686 71.1625 24.5421 73.2692 22.8473C74.3226 22.0105 75.4079 21.1737 76.5358 20.337C76.6635 20.231 76.8018 20.1251 76.9508 20.0298C76.9508 20.0298 87.6869 25.8555 95.9118 20.6865C98.955 24.9869 101.424 29.7111 103.381 34.5835C105.616 40.4515 107.542 46.4785 108.648 52.6644C108.861 53.946 109.042 55.2277 109.191 56.5199C109.329 57.1131 109.212 57.8439 109.372 58.4477C109.372 58.5112 109.372 58.5854 109.372 58.6489C109.436 60.439 109.457 62.2397 109.478 64.0298C109.542 72.1328 107.914 80.257 105.265 87.947Z" fill="#FF8B87"/>
<path d="M52.393 78.4459L52.3823 78.4353C52.4142 78.4671 52.4355 78.4988 52.4674 78.52C52.4355 78.5094 52.4142 78.4777 52.393 78.4459Z" fill="white"/>
<path d="M72.4925 57.0813C71.3327 57.0284 69.7154 57.2296 70.0452 58.7655C70.4709 60.1319 71.9711 59.4328 73.0033 59.5705C77.1317 59.6976 80.5579 62.5893 81.8454 66.4236C82.8668 69.2835 82.7392 72.3765 82.6327 75.3635C82.4519 79.2296 81.6219 83.2652 79.1959 86.3899C78.9299 86.6971 78.6533 86.9725 78.366 87.2161C78.3873 85.4154 77.9936 82.8839 77.8872 81.9942C77.419 80.5219 75.2377 81.0091 75.4612 82.5344C75.7165 84.4198 75.9187 86.3158 75.8336 88.2118C75.8336 88.2859 75.8336 88.3495 75.8442 88.413C75.1739 88.5401 74.4929 88.5296 73.8332 88.3707C73.9822 86.284 73.9609 84.1973 73.8119 82.1213C73.7694 80.6172 71.5881 80.4689 71.3434 81.9412C71.3008 82.7356 71.4498 83.5512 71.4391 84.3562C71.4604 85.2566 71.4604 86.1463 71.4285 87.0466C70.9816 86.623 70.5879 86.1039 70.2581 85.4896C69.2366 83.5724 69.2366 81.348 69.2791 79.2402C69.3962 76.1896 69.6941 73.1179 69.3111 70.0674C69.0451 68.4573 66.6616 68.8175 66.8425 70.4275C67.2149 73.3403 66.8851 76.285 66.7893 79.1978C66.651 82.3649 66.9808 85.818 69.194 88.2859C70.3645 89.5994 71.9286 90.6056 73.6842 90.8916C78.7065 91.7496 82.2923 87.5233 83.6968 83.1805C84.8459 80.077 85.1439 76.7404 85.1864 73.4569C85.1971 71.7091 85.1758 69.9508 84.8885 68.2243C83.867 61.9749 79.0576 57.0389 72.4925 57.0813Z" fill="white"/>
<path d="M106.52 66.805C104.977 66.0635 104.445 68.1078 103.903 69.1247C102.488 72.3023 102.243 75.8189 101.594 79.1979C101.136 81.6235 100.445 84.0491 99.0827 86.1358C99.0401 86.2099 98.9869 86.2735 98.9443 86.3476C98.9124 85.2036 98.8911 84.0491 98.8486 82.9051C98.8273 82.312 98.7635 81.7294 98.7422 81.1362C98.7847 80.8079 98.689 80.4583 98.4762 80.1935C97.7101 79.2402 96.1672 79.8969 96.2523 81.0939C96.4013 83.4665 96.4332 85.8498 96.5077 88.233C96.5077 88.3072 96.5184 88.3813 96.529 88.4449C95.8161 88.7414 95.0819 88.805 94.3584 88.6143C94.4009 88.4872 94.4222 88.3495 94.4116 88.2012C94.3477 86.4429 94.3584 84.6846 94.3371 82.9263C94.3264 82.3649 94.3477 81.8247 94.3158 81.2633C94.0498 79.7381 91.8153 79.9499 91.8366 81.4752C91.8472 83.2123 91.8579 84.9494 91.8792 86.6866C88.985 82.5026 89.9214 73.9653 90.7194 69.1141C91.4216 64.9302 92.9113 60.6827 96.1566 57.7804C97.7526 56.3081 99.7211 54.9311 101.956 54.7934C103.349 54.9841 104.03 52.8657 102.424 52.3678C97.0397 52.0289 91.5387 58.1088 89.8362 62.8223C88.038 67.7371 87.4528 73.0332 87.4847 78.2446C87.4209 83.2335 88.6977 90.1078 94.5073 91.1988C97.3483 91.5696 99.9126 89.5782 101.317 87.2691C103.722 83.5301 104.116 79.0072 104.882 74.728C105.19 73.065 105.595 71.402 106.307 69.8661C106.754 68.8599 107.84 67.6206 106.52 66.805Z" fill="white"/>
<path d="M111.979 59.846C111.957 58.2678 111.925 56.6789 111.862 55.1007C111.862 54.9948 111.851 54.8889 111.851 54.7829C111.851 54.7088 111.84 54.6346 111.84 54.5711C111.851 54.4228 111.819 54.2851 111.776 54.158C111.713 53.6919 111.638 53.2471 111.627 52.8763C110.989 47.4637 109.585 42.1676 107.903 36.988C105.084 28.3872 101.168 19.9664 95.3159 12.9755C92.975 10.211 80.0896 -3.2941 76.7911 0.752124C76.0037 1.88549 76.6315 8.46325 76.706 10.4122C76.7272 11.7151 76.9294 13.0285 76.7698 14.3313C73.7799 16.5345 71.0453 18.6635 68.1405 21.0786C66.321 22.4979 64.6505 24.1821 62.6288 25.326C62.3415 25.4955 62.0436 25.2943 61.767 25.1989C60.9902 24.8917 60.2135 24.574 59.4367 24.2456C56.1702 23.0593 50.0733 19.7333 47.1684 22.7945C46.5407 23.4724 46.3598 24.574 46.679 25.4637C46.796 26.5124 48.1899 27.3385 48.8071 28.1436C51.6374 31.014 54.1485 34.2023 56.3085 37.5918C59.7347 43.1421 62.416 49.4127 62.7352 55.9799C62.8629 61.3289 60.937 66.5509 58.0641 70.9996C56.6702 72.9168 55.1593 74.5162 53.3398 76.1262C50.8926 74.3573 47.626 73.8489 44.6573 73.7112C36.6771 73.5417 30.3035 77.5668 25.941 84.028C24.4301 81.2211 24.1322 77.768 21.9403 75.3212C19.3866 72.1012 16.1094 73.0227 14.5559 75.7767C13.7259 72.8003 13.5131 69.6544 13.4067 66.5826C13.2471 58.3313 15.8859 50.3236 19.4291 42.9514C20.9401 39.7632 22.6638 36.6703 24.4301 33.6197C26.6646 29.6794 29.2289 25.1354 28.0265 20.4536C27.303 17.7208 24.8131 15.7295 22.0254 15.38C18.0885 14.7338 14.5772 17.276 12.0022 19.9664C6.58627 25.6014 3.59634 33.0583 1.89389 40.5682C-1.26628 53.872 -0.776826 68.5952 5.62864 80.9033C8.43769 86.0299 11.9596 90.7858 16.0349 94.9909C18.6524 97.6813 21.2699 100.393 23.6214 103.327C24.4301 104.376 25.3984 105.7 25.9517 107.055C25.4196 106.409 24.9089 105.753 24.3769 105.244C23.6214 104.418 22.8021 103.645 21.8551 103.041C19.2057 101.442 15.5135 102.056 14.6304 105.318C14.1196 107.204 14.6623 109.216 15.4284 110.964C16.8967 114.332 18.929 117.425 21.2806 120.253C24.196 124.109 27.8882 127.318 32.1762 129.553C37.5177 131.693 40.7949 131.756 43.4018 131.926C60.4156 132.953 76.6102 124.342 88.8785 113.146C99.3592 103.846 107.052 91.6967 110.01 77.9269C111.447 72.0059 112.138 65.9471 111.979 59.846ZM48.69 24.3833C48.6794 24.3833 48.6794 24.3727 48.6687 24.3727H48.6794C48.7219 24.3939 48.7751 24.4257 48.8177 24.4469C48.8177 24.4469 48.8177 24.4469 48.8071 24.4469C48.8071 24.4469 48.8071 24.4469 48.8177 24.4469C48.839 24.4575 48.8496 24.4787 48.8709 24.4892C48.8177 24.4575 48.7538 24.4151 48.69 24.3833ZM13.9068 88.8369C10.9701 85.1296 8.33129 81.1363 6.39475 76.8147C4.09644 71.2538 2.88344 65.3434 2.57487 59.3694C3.16009 58.3313 6.78844 52.029 9.22507 49.0314C11.8852 45.7584 15.4709 39.5196 14.1728 32.7194C13.279 28.0588 12.2682 25.3578 11.7149 24.1185C12.3959 23.2288 13.1301 22.3708 13.9175 21.5552C15.4177 20.1147 17.0351 18.6212 19.0886 18.028C20.9081 17.4666 23.0362 17.8267 24.4514 19.119C26.6114 21.2692 25.8878 24.6587 24.8983 27.2114C23.3661 30.9293 21.0571 34.2658 19.2163 37.8354C14.8964 45.9914 11.3531 54.8253 10.9488 64.1358C10.853 69.3472 11.1084 74.8552 13.3429 79.6428C13.428 79.7699 13.5131 79.8653 13.6089 79.95C13.6195 83.1065 15.024 86.1782 16.6627 88.8369C19.0354 92.5759 22.0254 95.8913 24.1002 99.821C24.1854 99.9693 24.2598 100.128 24.3343 100.276C21.0145 96.3361 17.1521 92.8619 13.9068 88.8369ZM105.307 85.2037C102.009 94.3872 96.3267 102.596 89.2828 109.343C83.8031 108.538 67.268 106.494 57.3406 109.629C47.4025 112.765 37.2942 123.929 34.0915 127.71C31.7081 126.513 29.4098 125.115 27.4413 123.314C25.4409 121.514 23.7491 119.417 22.1105 117.288C19.9292 114.375 17.7799 111.197 16.9712 107.606C16.3754 104.132 19.5887 103.931 21.5785 105.943C23.5576 107.744 24.9195 110.307 27.4094 111.483C31.4101 113.337 34.7831 109.428 37.7837 107.341C41.4972 104.577 45.5405 102.119 49.9668 100.658C54.8614 99.2384 60.2986 99.821 64.7995 102.204C66.5977 103.189 68.3959 104.27 69.7791 105.806C70.2686 106.388 70.3431 107.183 71.29 107.204C72.0136 107.246 72.6307 106.589 72.5669 105.88C72.503 105.075 71.7476 104.227 71.1624 103.634C66.4274 99.2172 59.7772 96.8763 53.2973 97.5119C46.5087 98.2109 40.5608 102.172 35.2406 106.187C33.5914 107.373 32.0166 108.92 30.0269 109.492C29.9205 109.502 29.8141 109.502 29.7077 109.502C29.4949 107.246 28.9522 105.022 28.1861 102.882C26.4624 97.9461 23.2277 93.794 20.174 89.6207C18.5886 87.3857 17.0031 84.8118 16.3754 82.0684C15.8966 80.1301 15.8646 76.2533 18.3545 75.7661C20.9294 76.5393 21.7806 80.2678 22.6212 82.5133C23.1213 83.8479 23.4831 85.4473 24.7706 86.263C25.7708 86.8985 27.1327 86.5278 27.8669 85.6592C29.5162 83.4666 31.1654 81.2105 33.4531 79.6216C37.507 76.7406 42.7102 75.586 47.6153 76.5075C49.3497 76.7829 50.9564 77.482 52.3822 78.4565C52.3396 78.4035 52.2971 78.3506 52.2545 78.2976C52.2332 78.2658 52.2226 78.2341 52.2013 78.2023C52.2545 78.2976 52.3184 78.3824 52.3928 78.4671C52.5524 78.573 52.712 78.6895 52.861 78.806C53.3398 78.9967 53.808 78.8696 54.1272 78.5836C55.0955 78.2447 56.1595 76.8359 56.8937 76.2215C60.5646 72.6732 63.0012 68.002 64.3632 63.1296C67.7149 50.6096 60.5008 37.5706 52.4248 28.3554C51.8927 27.7516 51.3288 27.1691 50.7649 26.5971C50.435 26.2581 50.0839 25.951 49.7647 25.6014C49.5625 25.379 48.7964 24.6587 49.1901 24.3727C50.0732 23.7054 51.5523 24.1079 52.5099 24.3515C54.3187 24.807 56.0531 25.5273 57.7662 26.2581C58.4578 26.5547 59.1601 26.8513 59.8517 27.1373C60.3412 27.3385 60.8519 27.5822 61.3733 27.7093C63.5865 28.5037 65.4166 26.4488 67.0339 25.2413C69.1301 23.5254 71.2049 21.7988 73.3117 20.1041C74.3651 19.2673 75.4504 18.4305 76.5783 17.5937C76.706 17.4878 76.8443 17.3819 76.9933 17.2865C76.9933 17.2865 87.7293 23.1123 95.9543 17.9433C98.9974 22.2437 101.466 26.9678 103.424 31.8402C105.658 37.7083 107.584 43.7353 108.691 49.9211C108.904 51.2028 109.084 52.4844 109.233 53.7767C109.372 54.3698 109.255 55.1007 109.414 55.7045C109.414 55.768 109.414 55.8422 109.414 55.9057C109.478 57.6958 109.499 59.4965 109.521 61.2865C109.585 69.3896 107.957 77.5138 105.307 85.2037Z" fill="white"/>
<path d="M91.8153 23.8748C92.6346 23.4405 93.6454 23.324 93.5071 22.1165C93.0283 20.284 91.113 21.3645 90.0703 22.0106C88.5594 22.9533 87.1974 24.1396 86.0908 25.5378C84.7821 27.2113 83.9628 29.2451 83.6648 31.3423C83.5691 32.0096 84.1224 32.6346 84.7714 32.7087C86.3143 32.8358 86.1227 31.0351 86.5058 30.0289C86.8569 28.9061 87.4209 27.8575 88.155 26.936C89.1659 25.6967 90.4214 24.6586 91.8153 23.8748Z" fill="white"/>
<path d="M73.514 37.1999C74.4397 37.7613 75.6527 36.7445 75.2909 35.7382C74.9398 34.6366 71.5668 33.4609 70.4283 33.4503C67.9172 33.355 65.4167 34.2871 63.3631 35.6958C62.7566 36.1619 61.916 36.628 61.9267 37.4859C61.9054 38.5875 63.4482 39.1171 64.1079 38.2592C64.9592 37.5177 65.9594 36.9775 67.0021 36.5644C69.4175 35.5581 71.3221 35.77 73.514 37.1999ZM64.2675 38.0473C64.225 38.1215 64.1718 38.1956 64.1186 38.2592C64.225 38.132 64.2995 37.9943 64.3527 37.8355C64.3314 37.9096 64.2995 37.9732 64.2675 38.0473Z" fill="white"/>
<path d="M52.6802 42.1677C55.3084 43.8942 55.2552 40.9814 54.5423 39.9751C48.8178 27.9847 31.5273 30.8234 25.4198 41.0449C18.3971 51.6795 24.8665 68.0338 38.0924 69.1142C46.8813 69.8451 55.0743 65.4811 57.5429 56.7425C57.9791 55.5456 58.5856 53.6073 56.9151 53.1094C55.5851 52.8022 54.4253 53.8085 53.3506 54.4229C50.5947 56.2341 47.3069 58.3102 43.902 57.0603C42.0825 56.393 40.7525 54.8783 39.6884 53.3213C37.837 50.5143 38.3584 46.7117 40.646 44.3073C43.5615 40.9708 48.754 40.3458 52.6802 42.1677Z" fill="white"/>
<path d="M80.2387 36.1829C78.5469 37.0303 79.2172 38.6509 80.643 39.3394C81.2601 39.6783 81.9198 39.9008 82.5689 40.1762C82.9413 40.3245 83.2924 40.5469 83.7074 40.5787C86.0164 40.5045 85.5482 37.3057 85.3673 35.7381C84.6651 33.0794 81.6538 35.4521 80.2387 36.1829Z" fill="white"/>
</g>
<defs>
<clipPath id="clip0_248_103">
<rect width="112" height="132" fill="white"/>
</clipPath>
</defs>
</svg>
