<svg width="29" height="25" viewBox="0 0 29 25" fill="none" xmlns="http://www.w3.org/2000/svg">
<path d="M0.803888 0.131987C1.071 0.296362 1.21482 0.604563 1.31071 1.22097C1.3655 1.58396 1.46139 1.79628 1.77644 2.3031C2.68734 3.75507 4.02973 5.28238 5.00228 5.97412C5.56389 6.37136 6.22139 6.68641 6.72136 6.78914C7.06381 6.85763 7.1186 6.85763 7.29667 6.7275C7.61857 6.50149 8.00896 6.4056 8.63906 6.4056C8.96096 6.39875 9.21437 6.37821 9.20067 6.35766C9.15273 6.27547 8.57057 6.15904 8.23497 6.15904C8.0569 6.15904 7.70761 6.22068 7.46104 6.30287C7.07751 6.42615 6.97477 6.433 6.72821 6.37136C6.40631 6.28232 6.26933 6.1248 6.02277 5.54264C5.65293 4.67282 5.831 3.34413 6.30358 3.46741C6.52274 3.52905 7.13914 3.17291 7.44735 2.80992C7.59802 2.63185 7.83089 2.43323 7.96102 2.37159C8.32401 2.19351 9.01575 2.12502 9.62531 2.19351L10.1664 2.25515L10.5431 1.85792C10.7485 1.6456 11.1595 1.20727 11.454 0.899067C11.9745 0.344303 11.995 0.330606 12.1252 0.447039C12.3375 0.638807 12.6525 1.3374 12.7005 1.73464C12.7553 2.15242 12.6251 2.74828 12.3717 3.26195C12.2279 3.5633 12.221 3.61809 12.2964 3.86465C12.4471 4.34408 12.4128 4.94678 12.2142 5.42621C12.0567 5.79605 12.0361 5.91933 12.0704 6.33711C12.1594 7.56992 12.9676 8.9534 14.1114 9.83007C14.3374 10.0013 14.9606 10.3711 15.488 10.6519C16.8235 11.3505 17.529 11.8436 18.2207 12.5285C19.5768 13.8846 20.3987 15.7064 20.7822 18.2132C20.8438 18.6104 20.9123 19.6035 20.9329 20.4185C20.9534 21.2404 20.9945 21.9116 21.0219 21.9116C21.0493 21.9116 21.2753 21.6993 21.5219 21.439C22.3232 20.6103 22.6246 19.6651 22.467 18.5008C22.2616 17.0283 21.652 15.816 19.385 12.3573C18.2413 10.6177 17.4057 8.6863 17.1454 7.18638C16.9948 6.30287 17.0427 4.89884 17.255 4.17285C17.5084 3.28249 17.8988 2.63869 18.5905 1.9401C19.1385 1.37849 19.2891 1.27576 19.9261 0.967556C20.3233 0.782635 20.8575 0.577168 21.111 0.515528C23.3232 -0.0186882 25.7682 0.789484 27.227 2.52911C27.9804 3.41947 28.6105 4.84405 28.5215 5.4536C28.4119 6.18644 27.638 6.69326 26.9188 6.50149C26.5011 6.3919 26.1244 6.02206 25.9805 5.59058C25.6997 4.70707 25.0628 3.8715 24.3642 3.46057C23.3711 2.87841 22.1588 2.79622 21.1863 3.2414C20.7411 3.44687 20.1658 3.96739 19.9809 4.34408C19.3439 5.57688 19.6247 7.45349 20.7548 9.56981C20.9397 9.92595 21.4876 10.8163 21.9739 11.556C24.5902 15.5832 25.1998 17.0899 25.1107 19.3775C25.0696 20.5075 24.9121 21.1513 24.4669 22.0417C23.9327 23.1101 23.0903 23.8498 21.9808 24.2128C21.6315 24.3292 21.2274 24.3429 16.892 24.3635L12.1868 24.384V24.1649C12.1868 23.6512 12.6183 23.1512 13.2484 22.9321C13.7415 22.7608 15.1798 22.8567 15.9195 23.1101C15.9948 23.1375 15.6729 22.9595 15.2003 22.7197C13.7826 22.0006 12.8785 21.2883 12.3238 20.4596C10.9951 18.4734 12.2621 16.2955 14.7483 16.2955C15.1935 16.2955 15.5222 16.3365 15.8236 16.4324C16.0633 16.5009 16.2688 16.5489 16.2825 16.5352C16.3373 16.4872 15.4674 16.09 15.0839 15.9873C14.6387 15.8708 13.7963 15.8571 13.358 15.9599C12.4882 16.1585 11.6457 16.8365 11.3649 17.5762C11.2006 17.994 11.1458 18.7542 11.2485 19.1241C11.2964 19.2953 11.2896 19.309 11.18 19.2473C10.9471 19.1241 9.89241 18.131 9.39244 17.5762C8.43359 16.5009 7.59118 15.0832 7.19394 13.8983C7.01587 13.3367 6.84464 12.4738 6.84464 12.0834C6.84464 11.7889 6.84464 11.782 6.17345 11.2889C5.26254 10.604 3.6325 8.9671 2.95445 8.04935C1.24222 5.72756 0.235428 3.17291 0.0231113 0.625111C-0.0179825 0.0977421 -0.0179825 0.0840454 0.139544 0.0429516C0.4135 -0.0323868 0.564177 -0.0118408 0.803888 0.131987Z" fill="white"/>
<path d="M6.91996 14.4941C7.34459 15.6036 8.48837 17.309 9.66638 18.5692C10.1116 19.0418 10.0979 18.9459 9.80336 19.8705C9.36503 21.2129 9.14586 22.3224 9.00203 23.9114L8.95409 24.3771H7.32405C5.50223 24.3771 5.57072 24.3976 5.65291 23.8908C5.7351 23.3771 6.18713 22.9183 6.7008 22.8292C6.83777 22.8087 6.9816 22.7813 7.0227 22.7676C7.12543 22.7402 7.20762 20.3705 7.15282 18.9801C7.12543 18.3911 7.05009 17.3501 6.9816 16.672C6.83093 15.2269 6.76929 14.3092 6.81723 14.3092C6.83093 14.3092 6.87887 14.3913 6.91996 14.4941Z" fill="white"/>
</svg>
