<svg width="1920" height="590" viewBox="0 0 1920 590" fill="none" xmlns="http://www.w3.org/2000/svg">
<g opacity="0.4">
<g opacity="0.5">
<path d="M345.331 551.305C345.331 551.305 270.084 550.177 297.31 517.397C324.537 484.617 403.668 440.525 337.64 411.743C271.61 382.939 313.735 346.075 318.716 320.116C325.625 284.074 281.142 235.546 191.361 261.31C101.579 287.074 113.482 341.499 23.7212 367.239C-66.0174 392.977 -111.692 316.034 -127.54 279.638C-143.389 243.219 -122.605 185.502 -80.1559 155.986C-37.7064 126.469 3.77574 184.276 -37.881 197.882C-79.5156 211.487 -159.925 160.376 -144.395 102.361C-128.886 44.37 -44.1179 -14.6293 -24.6826 94.877" stroke="black" stroke-width="1.26" stroke-miterlimit="10" stroke-linecap="round" stroke-linejoin="round"/>
</g>
<line opacity="0.5" x1="344.547" y1="551.5" x2="1994.55" y2="551.5" stroke="black"/>
</g>
</svg>
