<svg width="55" height="56" viewBox="0 0 55 56" fill="none" xmlns="http://www.w3.org/2000/svg">
<path d="M35.343 0.966007C33.2356 2.10751 33.3234 5.88323 35.4308 7.02473C36.3967 7.46377 38.2406 7.90281 39.6455 7.90281C41.9285 7.90281 41.7529 8.16623 35.782 14.225C31.0404 18.9666 29.1964 20.2837 28.3184 19.5812C27.7037 19.0544 25.1573 18.1763 22.6987 17.5616C9.70315 14.3128 -2.85334 27.3961 0.571153 40.6551C2.76634 49.4358 12.6886 56.3726 21.0303 55.0555C31.0404 53.475 37.7138 45.8357 37.7138 36.0012C37.7138 33.2792 37.0991 29.9425 36.3089 28.362L34.9039 25.6399L41.3139 19.23L47.8117 12.82V16.4201C47.8117 19.3178 48.2507 20.3715 49.6556 21.074C51.0605 21.8642 51.8508 21.7764 53.1679 20.5471C54.5728 19.3178 54.8363 17.8251 54.8363 10.8883C54.8363 0.263542 54.5728 0.00012207 44.475 0.00012207C40.2602 0.00012207 36.1332 0.439159 35.343 0.966007ZM27.6159 27.2205C30.9526 30.5572 31.1282 30.9962 31.1282 36.0891C31.1282 41.1819 30.9526 41.7087 27.7037 44.8698C24.5426 48.0309 23.928 48.2943 19.2742 48.2943C11.2837 48.2943 6.54207 43.7283 6.54207 36.0012C6.54207 28.362 11.4593 23.7082 19.5376 23.7082C23.6646 23.7082 24.367 23.9716 27.6159 27.2205Z" fill="white"/>
</svg>
