<svg width="41" height="42" viewBox="0 0 41 42" fill="none" xmlns="http://www.w3.org/2000/svg">
<path d="M16.5187 0.23832C15.0474 1.01318 14.4491 3.69085 15.3221 5.62309C15.891 6.88836 17.2739 7.47686 18.6177 7.01587C19.8437 6.59411 20.3243 5.06401 19.9124 2.90618C19.6672 1.6311 19.2062 0.777778 18.4705 0.277554C17.9409 -0.0755458 17.1562 -0.0951624 16.5187 0.23832Z" fill="#1268AE"/>
<path d="M22.894 0.209306C21.9034 0.729147 21.2266 2.36714 21.2168 4.28957C21.207 6.14334 21.8641 7.02609 23.3354 7.14379C25.1401 7.29091 26.3367 5.91775 26.3367 3.69126C26.3367 2.02385 25.7188 0.748764 24.6497 0.199498C24.1691 -0.0457101 23.3648 -0.0359015 22.894 0.209306Z" fill="#1268AE"/>
<path d="M11.6243 4.63244C11.2712 4.76975 10.8494 5.20132 10.6239 5.6525C10.3688 6.13311 10.2806 7.23164 10.4375 7.94765C10.6827 9.11484 11.536 10.3409 12.3599 10.7136C12.8307 10.9294 13.6154 10.949 14.1548 10.7626C15.8811 10.1545 16.0479 8.37921 14.5962 6.17234C13.7135 4.83841 12.5855 4.24991 11.6243 4.63244Z" fill="#1268AE"/>
<path d="M28.0433 4.80929C26.8467 5.50568 25.6403 7.54581 25.6501 8.87974C25.6599 10.2725 27.2096 11.2337 28.7103 10.7826C30.1717 10.351 31.3193 7.75178 30.8093 6.05494C30.3973 4.7112 29.1811 4.16194 28.0433 4.80929Z" fill="#1268AE"/>
<path d="M19.7163 7.84001C19.0788 8.14407 18.7453 8.48736 17.7841 9.85071C17.1269 10.7727 16.46 11.5476 15.4301 12.5872C13.7136 14.3233 13.3507 14.902 13.3507 15.9907C13.3409 16.9421 13.6057 17.5993 14.2237 18.2172C14.6062 18.5997 14.871 18.7665 15.2535 18.8842C16.048 19.1196 17.3623 19.0803 18.5884 18.7959C20.0106 18.4624 21.266 18.4624 22.7373 18.8057C23.6495 19.0117 24.0124 19.0509 24.8657 19.0215C25.7484 18.9921 25.974 18.943 26.3958 18.7174C27.3472 18.227 27.9063 17.2364 27.9063 16.0201C27.9063 14.9118 27.5924 14.4018 25.7779 12.5284C24.748 11.4789 23.9829 10.5863 23.5023 9.88995C22.2861 8.11464 21.8349 7.76154 20.7462 7.69288C20.2656 7.66346 20.0106 7.70269 19.7163 7.84001Z" fill="#1268AE"/>
<path d="M1.46909 12.3805C0.960189 12.5438 0.528104 12.8894 0.259251 13.3311L0 13.7824V19.2555V24.7286L0.249649 25.2567C0.460891 25.6984 1.12342 26.3993 4.0904 29.3375C6.06839 31.2963 8.25762 33.4567 8.95856 34.1384L10.226 35.3771V37.8832C10.226 40.6197 10.2356 40.6581 10.8021 40.9558C11.215 41.167 17.4946 41.167 17.9075 40.9558C18.5124 40.6389 18.4836 40.9846 18.4836 34.2248C18.4836 27.4843 18.4932 27.5899 17.9075 26.7546C17.7443 26.5049 16.1696 24.8534 14.422 23.0963C11.0134 19.6588 10.8117 19.5051 9.90915 19.4955C9.09299 19.4955 8.39205 19.9276 8.00797 20.667C7.78713 21.1087 7.76793 21.9536 7.96957 22.4529C8.06558 22.6738 8.78573 23.4707 9.87074 24.5557C11.5607 26.2649 11.6183 26.3225 11.6183 26.7066C11.6183 27.2251 11.167 27.6572 10.6389 27.6572C10.3028 27.6572 10.13 27.5131 7.23022 24.6134L4.18642 21.5696L4.15762 17.6808L4.12881 13.7824L3.85996 13.3311C3.52389 12.755 2.92858 12.3902 2.23724 12.3421C1.95878 12.3133 1.61312 12.3421 1.46909 12.3805Z" fill="#1268AE"/>
<path d="M38.3404 12.3806C37.8315 12.5438 37.3994 12.8895 37.1305 13.3311L36.8713 13.7824L36.8425 17.6808L36.8137 21.5696L33.7699 24.6134C30.8701 27.5131 30.6973 27.6572 30.3612 27.6572C29.8331 27.6572 29.3818 27.2251 29.3818 26.7066C29.3818 26.3225 29.4394 26.2649 31.1293 24.5557C32.2144 23.4707 32.9345 22.6738 33.0305 22.4529C33.2322 21.9536 33.213 21.1087 32.9921 20.667C32.608 19.9276 31.9071 19.4956 31.0909 19.4956C30.1788 19.5052 29.9963 19.6492 26.5684 23.1155C24.8017 24.8918 23.2366 26.5433 23.0734 26.7738C22.5069 27.5899 22.5165 27.5131 22.5165 34.2248C22.5165 40.9846 22.4876 40.6389 23.0926 40.9558C23.5054 41.167 29.7851 41.167 30.198 40.9558C30.7645 40.6581 30.7741 40.6197 30.7741 37.8832V35.3771L32.0511 34.1384C32.7425 33.4567 34.9317 31.2963 36.9097 29.3375C39.8767 26.3993 40.5392 25.6984 40.7504 25.2567L41.0001 24.7286V19.2555C41.0001 14.3393 40.9809 13.7536 40.8369 13.4944C40.6352 13.1199 40.2127 12.6974 39.8671 12.515C39.5214 12.3421 38.6956 12.2653 38.3404 12.3806Z" fill="#1268AE"/>
</svg>
