<svg width="346" height="265" viewBox="0 0 346 265" fill="none" xmlns="http://www.w3.org/2000/svg">
<g opacity="0.5">
<path opacity="0.05" d="M114.619 71.375H99.7432L97.6777 77H93.7007L104.621 47.0073H109.785L120.705 77H116.684L114.619 71.375ZM101.083 67.6177H113.278L107.192 50.8965L101.083 67.6177ZM145.842 65.75C145.842 68.9434 144.707 71.6753 142.436 73.9458C140.18 76.2017 137.441 77.3296 134.218 77.3296C130.996 77.3296 128.256 76.2017 126 73.9458C123.73 71.6753 122.595 68.9434 122.595 65.75C122.595 62.6152 123.686 59.8906 125.869 57.5762C128.066 55.2764 130.725 54.1265 133.845 54.1265C137.126 54.1265 139.88 55.3789 142.106 57.8838V47.0073H145.842V65.75ZM142.106 65.75C142.106 63.5967 141.33 61.751 139.777 60.2129C138.225 58.6602 136.372 57.8838 134.218 57.8838C132.08 57.8838 130.234 58.6602 128.681 60.2129C127.128 61.751 126.352 63.5967 126.352 65.75C126.352 67.9033 127.128 69.7563 128.681 71.3091C130.234 72.8472 132.08 73.6162 134.218 73.6162C136.357 73.6162 138.21 72.8472 139.777 71.3091C141.33 69.7563 142.106 67.9033 142.106 65.75ZM173.791 65.75C173.791 68.9434 172.656 71.6753 170.385 73.9458C168.129 76.2017 165.39 77.3296 162.167 77.3296C158.945 77.3296 156.206 76.2017 153.95 73.9458C151.679 71.6753 150.544 68.9434 150.544 65.75C150.544 62.5566 151.679 59.8247 153.95 57.5542C156.235 55.269 158.974 54.1265 162.167 54.1265C165.375 54.1265 168.115 55.269 170.385 57.5542C172.656 59.8247 173.791 62.5566 173.791 65.75ZM170.056 65.75C170.056 63.5967 169.279 61.751 167.727 60.2129C166.174 58.6602 164.321 57.8838 162.167 57.8838C160.029 57.8838 158.183 58.6602 156.63 60.2129C155.078 61.751 154.301 63.5967 154.301 65.75C154.301 67.9033 155.078 69.7563 156.63 71.3091C158.183 72.8472 160.029 73.6162 162.167 73.6162C164.306 73.6162 166.159 72.8472 167.727 71.3091C169.279 69.7563 170.056 67.9033 170.056 65.75ZM189.203 77.45C187.073 77.45 185.168 77.015 183.488 76.145C181.838 75.275 180.533 73.925 179.573 72.095C178.643 70.265 178.178 67.925 178.178 65.075C178.178 62.105 178.673 59.69 179.663 57.83C180.653 55.97 181.988 54.605 183.668 53.735C185.378 52.865 187.313 52.43 189.473 52.43C190.703 52.43 191.888 52.565 193.028 52.835C194.168 53.075 195.098 53.375 195.818 53.735L194.603 57.02C193.883 56.75 193.043 56.495 192.083 56.255C191.123 56.015 190.223 55.895 189.383 55.895C187.763 55.895 186.428 56.24 185.378 56.93C184.328 57.62 183.548 58.64 183.038 59.99C182.528 61.34 182.273 63.02 182.273 65.03C182.273 66.95 182.528 68.585 183.038 69.935C183.548 71.285 184.313 72.305 185.333 72.995C186.353 73.685 187.628 74.03 189.158 74.03C190.478 74.03 191.633 73.895 192.623 73.625C193.643 73.355 194.573 73.025 195.413 72.635V76.145C194.603 76.565 193.703 76.88 192.713 77.09C191.753 77.33 190.583 77.45 189.203 77.45ZM192.893 83.255C192.893 84.215 192.638 85.025 192.128 85.685C191.648 86.375 190.913 86.9 189.923 87.26C188.933 87.62 187.703 87.8 186.233 87.8C185.783 87.8 185.348 87.77 184.928 87.71C184.538 87.68 184.223 87.635 183.983 87.575V85.1C184.253 85.16 184.613 85.205 185.063 85.235C185.513 85.295 185.948 85.325 186.368 85.325C187.448 85.325 188.273 85.175 188.843 84.875C189.413 84.605 189.698 84.095 189.698 83.345C189.698 82.565 189.293 81.995 188.483 81.635C187.703 81.275 186.743 81.02 185.603 80.87L187.538 77H190.148L188.978 79.385C189.698 79.535 190.358 79.76 190.958 80.06C191.558 80.39 192.023 80.81 192.353 81.32C192.713 81.83 192.893 82.475 192.893 83.255ZM218.703 73.6162C216.491 76.0918 213.737 77.3296 210.441 77.3296C207.321 77.3296 204.663 76.187 202.465 73.9019C200.283 71.5874 199.191 68.8701 199.191 65.75C199.191 62.5566 200.327 59.8247 202.597 57.5542C204.882 55.269 207.622 54.1265 210.815 54.1265C214.023 54.1265 216.762 55.269 219.033 57.5542C221.303 59.8247 222.438 62.5566 222.438 65.75V77H218.703V73.6162ZM218.703 65.75C218.703 63.5967 217.927 61.751 216.374 60.2129C214.821 58.6602 212.968 57.8838 210.815 57.8838C208.676 57.8838 206.831 58.6602 205.278 60.2129C203.725 61.751 202.949 63.5967 202.949 65.75C202.949 67.9033 203.725 69.7563 205.278 71.3091C206.831 72.8472 208.676 73.6162 210.815 73.6162C212.954 73.6162 214.807 72.8472 216.374 71.3091C217.927 69.7563 218.703 67.9033 218.703 65.75ZM215.122 50.3472C215.122 50.4204 215.048 50.5962 214.902 50.8745C214.331 51.9731 213.693 52.5225 212.99 52.5225C212.536 52.5225 211.789 52.1782 210.749 51.4897C209.709 50.8013 208.903 50.457 208.332 50.457C207.541 50.457 206.809 50.9258 206.135 51.8633V50.3472C206.135 50.2739 206.208 50.0981 206.354 49.8198C206.926 48.7212 207.578 48.1719 208.31 48.1719C208.75 48.1719 209.489 48.5161 210.529 49.2046C211.569 49.8931 212.368 50.2373 212.924 50.2373C213.686 50.2373 214.418 49.7759 215.122 48.853V50.3472ZM250.388 65.75C250.388 68.9434 249.252 71.6753 246.982 73.9458C244.726 76.2017 241.987 77.3296 238.764 77.3296C235.542 77.3296 232.802 76.2017 230.546 73.9458C228.276 71.6753 227.141 68.9434 227.141 65.75C227.141 62.5566 228.276 59.8247 230.546 57.5542C232.832 55.269 235.571 54.1265 238.764 54.1265C241.972 54.1265 244.711 55.269 246.982 57.5542C249.252 59.8247 250.388 62.5566 250.388 65.75ZM246.652 65.75C246.652 63.5967 245.876 61.751 244.323 60.2129C242.771 58.6602 240.917 57.8838 238.764 57.8838C236.625 57.8838 234.78 58.6602 233.227 60.2129C231.674 61.751 230.898 63.5967 230.898 65.75C230.898 67.9033 231.674 69.7563 233.227 71.3091C234.78 72.8472 236.625 73.6162 238.764 73.6162C240.903 73.6162 242.756 72.8472 244.323 71.3091C245.876 69.7563 246.652 67.9033 246.652 65.75Z" fill="white"/>
<path opacity="0.3" d="M114.619 157.375H99.7432L97.6777 163H93.7007L104.621 133.007H109.785L120.705 163H116.684L114.619 157.375ZM101.083 153.618H113.278L107.192 136.896L101.083 153.618ZM145.842 151.75C145.842 154.943 144.707 157.675 142.436 159.946C140.18 162.202 137.441 163.33 134.218 163.33C130.996 163.33 128.256 162.202 126 159.946C123.73 157.675 122.595 154.943 122.595 151.75C122.595 148.615 123.686 145.891 125.869 143.576C128.066 141.276 130.725 140.126 133.845 140.126C137.126 140.126 139.88 141.379 142.106 143.884V133.007H145.842V151.75ZM142.106 151.75C142.106 149.597 141.33 147.751 139.777 146.213C138.225 144.66 136.372 143.884 134.218 143.884C132.08 143.884 130.234 144.66 128.681 146.213C127.128 147.751 126.352 149.597 126.352 151.75C126.352 153.903 127.128 155.756 128.681 157.309C130.234 158.847 132.08 159.616 134.218 159.616C136.357 159.616 138.21 158.847 139.777 157.309C141.33 155.756 142.106 153.903 142.106 151.75ZM173.791 151.75C173.791 154.943 172.656 157.675 170.385 159.946C168.129 162.202 165.39 163.33 162.167 163.33C158.945 163.33 156.206 162.202 153.95 159.946C151.679 157.675 150.544 154.943 150.544 151.75C150.544 148.557 151.679 145.825 153.95 143.554C156.235 141.269 158.974 140.126 162.167 140.126C165.375 140.126 168.115 141.269 170.385 143.554C172.656 145.825 173.791 148.557 173.791 151.75ZM170.056 151.75C170.056 149.597 169.279 147.751 167.727 146.213C166.174 144.66 164.321 143.884 162.167 143.884C160.029 143.884 158.183 144.66 156.63 146.213C155.078 147.751 154.301 149.597 154.301 151.75C154.301 153.903 155.078 155.756 156.63 157.309C158.183 158.847 160.029 159.616 162.167 159.616C164.306 159.616 166.159 158.847 167.727 157.309C169.279 155.756 170.056 153.903 170.056 151.75ZM189.203 163.45C187.073 163.45 185.168 163.015 183.488 162.145C181.838 161.275 180.533 159.925 179.573 158.095C178.643 156.265 178.178 153.925 178.178 151.075C178.178 148.105 178.673 145.69 179.663 143.83C180.653 141.97 181.988 140.605 183.668 139.735C185.378 138.865 187.313 138.43 189.473 138.43C190.703 138.43 191.888 138.565 193.028 138.835C194.168 139.075 195.098 139.375 195.818 139.735L194.603 143.02C193.883 142.75 193.043 142.495 192.083 142.255C191.123 142.015 190.223 141.895 189.383 141.895C187.763 141.895 186.428 142.24 185.378 142.93C184.328 143.62 183.548 144.64 183.038 145.99C182.528 147.34 182.273 149.02 182.273 151.03C182.273 152.95 182.528 154.585 183.038 155.935C183.548 157.285 184.313 158.305 185.333 158.995C186.353 159.685 187.628 160.03 189.158 160.03C190.478 160.03 191.633 159.895 192.623 159.625C193.643 159.355 194.573 159.025 195.413 158.635V162.145C194.603 162.565 193.703 162.88 192.713 163.09C191.753 163.33 190.583 163.45 189.203 163.45ZM192.893 169.255C192.893 170.215 192.638 171.025 192.128 171.685C191.648 172.375 190.913 172.9 189.923 173.26C188.933 173.62 187.703 173.8 186.233 173.8C185.783 173.8 185.348 173.77 184.928 173.71C184.538 173.68 184.223 173.635 183.983 173.575V171.1C184.253 171.16 184.613 171.205 185.063 171.235C185.513 171.295 185.948 171.325 186.368 171.325C187.448 171.325 188.273 171.175 188.843 170.875C189.413 170.605 189.698 170.095 189.698 169.345C189.698 168.565 189.293 167.995 188.483 167.635C187.703 167.275 186.743 167.02 185.603 166.87L187.538 163H190.148L188.978 165.385C189.698 165.535 190.358 165.76 190.958 166.06C191.558 166.39 192.023 166.81 192.353 167.32C192.713 167.83 192.893 168.475 192.893 169.255ZM218.703 159.616C216.491 162.092 213.737 163.33 210.441 163.33C207.321 163.33 204.663 162.187 202.465 159.902C200.283 157.587 199.191 154.87 199.191 151.75C199.191 148.557 200.327 145.825 202.597 143.554C204.882 141.269 207.622 140.126 210.815 140.126C214.023 140.126 216.762 141.269 219.033 143.554C221.303 145.825 222.438 148.557 222.438 151.75V163H218.703V159.616ZM218.703 151.75C218.703 149.597 217.927 147.751 216.374 146.213C214.821 144.66 212.968 143.884 210.815 143.884C208.676 143.884 206.831 144.66 205.278 146.213C203.725 147.751 202.949 149.597 202.949 151.75C202.949 153.903 203.725 155.756 205.278 157.309C206.831 158.847 208.676 159.616 210.815 159.616C212.954 159.616 214.807 158.847 216.374 157.309C217.927 155.756 218.703 153.903 218.703 151.75ZM215.122 136.347C215.122 136.42 215.048 136.596 214.902 136.875C214.331 137.973 213.693 138.522 212.99 138.522C212.536 138.522 211.789 138.178 210.749 137.49C209.709 136.801 208.903 136.457 208.332 136.457C207.541 136.457 206.809 136.926 206.135 137.863V136.347C206.135 136.274 206.208 136.098 206.354 135.82C206.926 134.721 207.578 134.172 208.31 134.172C208.75 134.172 209.489 134.516 210.529 135.205C211.569 135.893 212.368 136.237 212.924 136.237C213.686 136.237 214.418 135.776 215.122 134.853V136.347ZM250.388 151.75C250.388 154.943 249.252 157.675 246.982 159.946C244.726 162.202 241.987 163.33 238.764 163.33C235.542 163.33 232.802 162.202 230.546 159.946C228.276 157.675 227.141 154.943 227.141 151.75C227.141 148.557 228.276 145.825 230.546 143.554C232.832 141.269 235.571 140.126 238.764 140.126C241.972 140.126 244.711 141.269 246.982 143.554C249.252 145.825 250.388 148.557 250.388 151.75ZM246.652 151.75C246.652 149.597 245.876 147.751 244.323 146.213C242.771 144.66 240.917 143.884 238.764 143.884C236.625 143.884 234.78 144.66 233.227 146.213C231.674 147.751 230.898 149.597 230.898 151.75C230.898 153.903 231.674 155.756 233.227 157.309C234.78 158.847 236.625 159.616 238.764 159.616C240.903 159.616 242.756 158.847 244.323 157.309C245.876 155.756 246.652 153.903 246.652 151.75Z" fill="white"/>
<path opacity="0.1" d="M114.619 115.375H99.7432L97.6777 121H93.7007L104.621 91.0073H109.785L120.705 121H116.684L114.619 115.375ZM101.083 111.618H113.278L107.192 94.8965L101.083 111.618ZM145.842 109.75C145.842 112.943 144.707 115.675 142.436 117.946C140.18 120.202 137.441 121.33 134.218 121.33C130.996 121.33 128.256 120.202 126 117.946C123.73 115.675 122.595 112.943 122.595 109.75C122.595 106.615 123.686 103.891 125.869 101.576C128.066 99.2764 130.725 98.1265 133.845 98.1265C137.126 98.1265 139.88 99.3789 142.106 101.884V91.0073H145.842V109.75ZM142.106 109.75C142.106 107.597 141.33 105.751 139.777 104.213C138.225 102.66 136.372 101.884 134.218 101.884C132.08 101.884 130.234 102.66 128.681 104.213C127.128 105.751 126.352 107.597 126.352 109.75C126.352 111.903 127.128 113.756 128.681 115.309C130.234 116.847 132.08 117.616 134.218 117.616C136.357 117.616 138.21 116.847 139.777 115.309C141.33 113.756 142.106 111.903 142.106 109.75ZM173.791 109.75C173.791 112.943 172.656 115.675 170.385 117.946C168.129 120.202 165.39 121.33 162.167 121.33C158.945 121.33 156.206 120.202 153.95 117.946C151.679 115.675 150.544 112.943 150.544 109.75C150.544 106.557 151.679 103.825 153.95 101.554C156.235 99.269 158.974 98.1265 162.167 98.1265C165.375 98.1265 168.115 99.269 170.385 101.554C172.656 103.825 173.791 106.557 173.791 109.75ZM170.056 109.75C170.056 107.597 169.279 105.751 167.727 104.213C166.174 102.66 164.321 101.884 162.167 101.884C160.029 101.884 158.183 102.66 156.63 104.213C155.078 105.751 154.301 107.597 154.301 109.75C154.301 111.903 155.078 113.756 156.63 115.309C158.183 116.847 160.029 117.616 162.167 117.616C164.306 117.616 166.159 116.847 167.727 115.309C169.279 113.756 170.056 111.903 170.056 109.75ZM189.203 121.45C187.073 121.45 185.168 121.015 183.488 120.145C181.838 119.275 180.533 117.925 179.573 116.095C178.643 114.265 178.178 111.925 178.178 109.075C178.178 106.105 178.673 103.69 179.663 101.83C180.653 99.97 181.988 98.605 183.668 97.735C185.378 96.865 187.313 96.43 189.473 96.43C190.703 96.43 191.888 96.565 193.028 96.835C194.168 97.075 195.098 97.375 195.818 97.735L194.603 101.02C193.883 100.75 193.043 100.495 192.083 100.255C191.123 100.015 190.223 99.895 189.383 99.895C187.763 99.895 186.428 100.24 185.378 100.93C184.328 101.62 183.548 102.64 183.038 103.99C182.528 105.34 182.273 107.02 182.273 109.03C182.273 110.95 182.528 112.585 183.038 113.935C183.548 115.285 184.313 116.305 185.333 116.995C186.353 117.685 187.628 118.03 189.158 118.03C190.478 118.03 191.633 117.895 192.623 117.625C193.643 117.355 194.573 117.025 195.413 116.635V120.145C194.603 120.565 193.703 120.88 192.713 121.09C191.753 121.33 190.583 121.45 189.203 121.45ZM192.893 127.255C192.893 128.215 192.638 129.025 192.128 129.685C191.648 130.375 190.913 130.9 189.923 131.26C188.933 131.62 187.703 131.8 186.233 131.8C185.783 131.8 185.348 131.77 184.928 131.71C184.538 131.68 184.223 131.635 183.983 131.575V129.1C184.253 129.16 184.613 129.205 185.063 129.235C185.513 129.295 185.948 129.325 186.368 129.325C187.448 129.325 188.273 129.175 188.843 128.875C189.413 128.605 189.698 128.095 189.698 127.345C189.698 126.565 189.293 125.995 188.483 125.635C187.703 125.275 186.743 125.02 185.603 124.87L187.538 121H190.148L188.978 123.385C189.698 123.535 190.358 123.76 190.958 124.06C191.558 124.39 192.023 124.81 192.353 125.32C192.713 125.83 192.893 126.475 192.893 127.255ZM218.703 117.616C216.491 120.092 213.737 121.33 210.441 121.33C207.321 121.33 204.663 120.187 202.465 117.902C200.283 115.587 199.191 112.87 199.191 109.75C199.191 106.557 200.327 103.825 202.597 101.554C204.882 99.269 207.622 98.1265 210.815 98.1265C214.023 98.1265 216.762 99.269 219.033 101.554C221.303 103.825 222.438 106.557 222.438 109.75V121H218.703V117.616ZM218.703 109.75C218.703 107.597 217.927 105.751 216.374 104.213C214.821 102.66 212.968 101.884 210.815 101.884C208.676 101.884 206.831 102.66 205.278 104.213C203.725 105.751 202.949 107.597 202.949 109.75C202.949 111.903 203.725 113.756 205.278 115.309C206.831 116.847 208.676 117.616 210.815 117.616C212.954 117.616 214.807 116.847 216.374 115.309C217.927 113.756 218.703 111.903 218.703 109.75ZM215.122 94.3472C215.122 94.4204 215.048 94.5962 214.902 94.8745C214.331 95.9731 213.693 96.5225 212.99 96.5225C212.536 96.5225 211.789 96.1782 210.749 95.4897C209.709 94.8013 208.903 94.457 208.332 94.457C207.541 94.457 206.809 94.9258 206.135 95.8633V94.3472C206.135 94.2739 206.208 94.0981 206.354 93.8198C206.926 92.7212 207.578 92.1719 208.31 92.1719C208.75 92.1719 209.489 92.5161 210.529 93.2046C211.569 93.8931 212.368 94.2373 212.924 94.2373C213.686 94.2373 214.418 93.7759 215.122 92.853V94.3472ZM250.388 109.75C250.388 112.943 249.252 115.675 246.982 117.946C244.726 120.202 241.987 121.33 238.764 121.33C235.542 121.33 232.802 120.202 230.546 117.946C228.276 115.675 227.141 112.943 227.141 109.75C227.141 106.557 228.276 103.825 230.546 101.554C232.832 99.269 235.571 98.1265 238.764 98.1265C241.972 98.1265 244.711 99.269 246.982 101.554C249.252 103.825 250.388 106.557 250.388 109.75ZM246.652 109.75C246.652 107.597 245.876 105.751 244.323 104.213C242.771 102.66 240.917 101.884 238.764 101.884C236.625 101.884 234.78 102.66 233.227 104.213C231.674 105.751 230.898 107.597 230.898 109.75C230.898 111.903 231.674 113.756 233.227 115.309C234.78 116.847 236.625 117.616 238.764 117.616C240.903 117.616 242.756 116.847 244.323 115.309C245.876 113.756 246.652 111.903 246.652 109.75Z" fill="white"/>
<path opacity="0.1" d="M114.619 203.375H99.7432L97.6777 209H93.7007L104.621 179.007H109.785L120.705 209H116.684L114.619 203.375ZM101.083 199.618H113.278L107.192 182.896L101.083 199.618ZM145.842 197.75C145.842 200.943 144.707 203.675 142.436 205.946C140.18 208.202 137.441 209.33 134.218 209.33C130.996 209.33 128.256 208.202 126 205.946C123.73 203.675 122.595 200.943 122.595 197.75C122.595 194.615 123.686 191.891 125.869 189.576C128.066 187.276 130.725 186.126 133.845 186.126C137.126 186.126 139.88 187.379 142.106 189.884V179.007H145.842V197.75ZM142.106 197.75C142.106 195.597 141.33 193.751 139.777 192.213C138.225 190.66 136.372 189.884 134.218 189.884C132.08 189.884 130.234 190.66 128.681 192.213C127.128 193.751 126.352 195.597 126.352 197.75C126.352 199.903 127.128 201.756 128.681 203.309C130.234 204.847 132.08 205.616 134.218 205.616C136.357 205.616 138.21 204.847 139.777 203.309C141.33 201.756 142.106 199.903 142.106 197.75ZM173.791 197.75C173.791 200.943 172.656 203.675 170.385 205.946C168.129 208.202 165.39 209.33 162.167 209.33C158.945 209.33 156.206 208.202 153.95 205.946C151.679 203.675 150.544 200.943 150.544 197.75C150.544 194.557 151.679 191.825 153.95 189.554C156.235 187.269 158.974 186.126 162.167 186.126C165.375 186.126 168.115 187.269 170.385 189.554C172.656 191.825 173.791 194.557 173.791 197.75ZM170.056 197.75C170.056 195.597 169.279 193.751 167.727 192.213C166.174 190.66 164.321 189.884 162.167 189.884C160.029 189.884 158.183 190.66 156.63 192.213C155.078 193.751 154.301 195.597 154.301 197.75C154.301 199.903 155.078 201.756 156.63 203.309C158.183 204.847 160.029 205.616 162.167 205.616C164.306 205.616 166.159 204.847 167.727 203.309C169.279 201.756 170.056 199.903 170.056 197.75ZM189.203 209.45C187.073 209.45 185.168 209.015 183.488 208.145C181.838 207.275 180.533 205.925 179.573 204.095C178.643 202.265 178.178 199.925 178.178 197.075C178.178 194.105 178.673 191.69 179.663 189.83C180.653 187.97 181.988 186.605 183.668 185.735C185.378 184.865 187.313 184.43 189.473 184.43C190.703 184.43 191.888 184.565 193.028 184.835C194.168 185.075 195.098 185.375 195.818 185.735L194.603 189.02C193.883 188.75 193.043 188.495 192.083 188.255C191.123 188.015 190.223 187.895 189.383 187.895C187.763 187.895 186.428 188.24 185.378 188.93C184.328 189.62 183.548 190.64 183.038 191.99C182.528 193.34 182.273 195.02 182.273 197.03C182.273 198.95 182.528 200.585 183.038 201.935C183.548 203.285 184.313 204.305 185.333 204.995C186.353 205.685 187.628 206.03 189.158 206.03C190.478 206.03 191.633 205.895 192.623 205.625C193.643 205.355 194.573 205.025 195.413 204.635V208.145C194.603 208.565 193.703 208.88 192.713 209.09C191.753 209.33 190.583 209.45 189.203 209.45ZM192.893 215.255C192.893 216.215 192.638 217.025 192.128 217.685C191.648 218.375 190.913 218.9 189.923 219.26C188.933 219.62 187.703 219.8 186.233 219.8C185.783 219.8 185.348 219.77 184.928 219.71C184.538 219.68 184.223 219.635 183.983 219.575V217.1C184.253 217.16 184.613 217.205 185.063 217.235C185.513 217.295 185.948 217.325 186.368 217.325C187.448 217.325 188.273 217.175 188.843 216.875C189.413 216.605 189.698 216.095 189.698 215.345C189.698 214.565 189.293 213.995 188.483 213.635C187.703 213.275 186.743 213.02 185.603 212.87L187.538 209H190.148L188.978 211.385C189.698 211.535 190.358 211.76 190.958 212.06C191.558 212.39 192.023 212.81 192.353 213.32C192.713 213.83 192.893 214.475 192.893 215.255ZM218.703 205.616C216.491 208.092 213.737 209.33 210.441 209.33C207.321 209.33 204.663 208.187 202.465 205.902C200.283 203.587 199.191 200.87 199.191 197.75C199.191 194.557 200.327 191.825 202.597 189.554C204.882 187.269 207.622 186.126 210.815 186.126C214.023 186.126 216.762 187.269 219.033 189.554C221.303 191.825 222.438 194.557 222.438 197.75V209H218.703V205.616ZM218.703 197.75C218.703 195.597 217.927 193.751 216.374 192.213C214.821 190.66 212.968 189.884 210.815 189.884C208.676 189.884 206.831 190.66 205.278 192.213C203.725 193.751 202.949 195.597 202.949 197.75C202.949 199.903 203.725 201.756 205.278 203.309C206.831 204.847 208.676 205.616 210.815 205.616C212.954 205.616 214.807 204.847 216.374 203.309C217.927 201.756 218.703 199.903 218.703 197.75ZM215.122 182.347C215.122 182.42 215.048 182.596 214.902 182.875C214.331 183.973 213.693 184.522 212.99 184.522C212.536 184.522 211.789 184.178 210.749 183.49C209.709 182.801 208.903 182.457 208.332 182.457C207.541 182.457 206.809 182.926 206.135 183.863V182.347C206.135 182.274 206.208 182.098 206.354 181.82C206.926 180.721 207.578 180.172 208.31 180.172C208.75 180.172 209.489 180.516 210.529 181.205C211.569 181.893 212.368 182.237 212.924 182.237C213.686 182.237 214.418 181.776 215.122 180.853V182.347ZM250.388 197.75C250.388 200.943 249.252 203.675 246.982 205.946C244.726 208.202 241.987 209.33 238.764 209.33C235.542 209.33 232.802 208.202 230.546 205.946C228.276 203.675 227.141 200.943 227.141 197.75C227.141 194.557 228.276 191.825 230.546 189.554C232.832 187.269 235.571 186.126 238.764 186.126C241.972 186.126 244.711 187.269 246.982 189.554C249.252 191.825 250.388 194.557 250.388 197.75ZM246.652 197.75C246.652 195.597 245.876 193.751 244.323 192.213C242.771 190.66 240.917 189.884 238.764 189.884C236.625 189.884 234.78 190.66 233.227 192.213C231.674 193.751 230.898 195.597 230.898 197.75C230.898 199.903 231.674 201.756 233.227 203.309C234.78 204.847 236.625 205.616 238.764 205.616C240.903 205.616 242.756 204.847 244.323 203.309C245.876 201.756 246.652 199.903 246.652 197.75Z" fill="white"/>
<path opacity="0.05" d="M114.619 247.375H99.7432L97.6777 253H93.7007L104.621 223.007H109.785L120.705 253H116.684L114.619 247.375ZM101.083 243.618H113.278L107.192 226.896L101.083 243.618ZM145.842 241.75C145.842 244.943 144.707 247.675 142.436 249.946C140.18 252.202 137.441 253.33 134.218 253.33C130.996 253.33 128.256 252.202 126 249.946C123.73 247.675 122.595 244.943 122.595 241.75C122.595 238.615 123.686 235.891 125.869 233.576C128.066 231.276 130.725 230.126 133.845 230.126C137.126 230.126 139.88 231.379 142.106 233.884V223.007H145.842V241.75ZM142.106 241.75C142.106 239.597 141.33 237.751 139.777 236.213C138.225 234.66 136.372 233.884 134.218 233.884C132.08 233.884 130.234 234.66 128.681 236.213C127.128 237.751 126.352 239.597 126.352 241.75C126.352 243.903 127.128 245.756 128.681 247.309C130.234 248.847 132.08 249.616 134.218 249.616C136.357 249.616 138.21 248.847 139.777 247.309C141.33 245.756 142.106 243.903 142.106 241.75ZM173.791 241.75C173.791 244.943 172.656 247.675 170.385 249.946C168.129 252.202 165.39 253.33 162.167 253.33C158.945 253.33 156.206 252.202 153.95 249.946C151.679 247.675 150.544 244.943 150.544 241.75C150.544 238.557 151.679 235.825 153.95 233.554C156.235 231.269 158.974 230.126 162.167 230.126C165.375 230.126 168.115 231.269 170.385 233.554C172.656 235.825 173.791 238.557 173.791 241.75ZM170.056 241.75C170.056 239.597 169.279 237.751 167.727 236.213C166.174 234.66 164.321 233.884 162.167 233.884C160.029 233.884 158.183 234.66 156.63 236.213C155.078 237.751 154.301 239.597 154.301 241.75C154.301 243.903 155.078 245.756 156.63 247.309C158.183 248.847 160.029 249.616 162.167 249.616C164.306 249.616 166.159 248.847 167.727 247.309C169.279 245.756 170.056 243.903 170.056 241.75ZM189.203 253.45C187.073 253.45 185.168 253.015 183.488 252.145C181.838 251.275 180.533 249.925 179.573 248.095C178.643 246.265 178.178 243.925 178.178 241.075C178.178 238.105 178.673 235.69 179.663 233.83C180.653 231.97 181.988 230.605 183.668 229.735C185.378 228.865 187.313 228.43 189.473 228.43C190.703 228.43 191.888 228.565 193.028 228.835C194.168 229.075 195.098 229.375 195.818 229.735L194.603 233.02C193.883 232.75 193.043 232.495 192.083 232.255C191.123 232.015 190.223 231.895 189.383 231.895C187.763 231.895 186.428 232.24 185.378 232.93C184.328 233.62 183.548 234.64 183.038 235.99C182.528 237.34 182.273 239.02 182.273 241.03C182.273 242.95 182.528 244.585 183.038 245.935C183.548 247.285 184.313 248.305 185.333 248.995C186.353 249.685 187.628 250.03 189.158 250.03C190.478 250.03 191.633 249.895 192.623 249.625C193.643 249.355 194.573 249.025 195.413 248.635V252.145C194.603 252.565 193.703 252.88 192.713 253.09C191.753 253.33 190.583 253.45 189.203 253.45ZM192.893 259.255C192.893 260.215 192.638 261.025 192.128 261.685C191.648 262.375 190.913 262.9 189.923 263.26C188.933 263.62 187.703 263.8 186.233 263.8C185.783 263.8 185.348 263.77 184.928 263.71C184.538 263.68 184.223 263.635 183.983 263.575V261.1C184.253 261.16 184.613 261.205 185.063 261.235C185.513 261.295 185.948 261.325 186.368 261.325C187.448 261.325 188.273 261.175 188.843 260.875C189.413 260.605 189.698 260.095 189.698 259.345C189.698 258.565 189.293 257.995 188.483 257.635C187.703 257.275 186.743 257.02 185.603 256.87L187.538 253H190.148L188.978 255.385C189.698 255.535 190.358 255.76 190.958 256.06C191.558 256.39 192.023 256.81 192.353 257.32C192.713 257.83 192.893 258.475 192.893 259.255ZM218.703 249.616C216.491 252.092 213.737 253.33 210.441 253.33C207.321 253.33 204.663 252.187 202.465 249.902C200.283 247.587 199.191 244.87 199.191 241.75C199.191 238.557 200.327 235.825 202.597 233.554C204.882 231.269 207.622 230.126 210.815 230.126C214.023 230.126 216.762 231.269 219.033 233.554C221.303 235.825 222.438 238.557 222.438 241.75V253H218.703V249.616ZM218.703 241.75C218.703 239.597 217.927 237.751 216.374 236.213C214.821 234.66 212.968 233.884 210.815 233.884C208.676 233.884 206.831 234.66 205.278 236.213C203.725 237.751 202.949 239.597 202.949 241.75C202.949 243.903 203.725 245.756 205.278 247.309C206.831 248.847 208.676 249.616 210.815 249.616C212.954 249.616 214.807 248.847 216.374 247.309C217.927 245.756 218.703 243.903 218.703 241.75ZM215.122 226.347C215.122 226.42 215.048 226.596 214.902 226.875C214.331 227.973 213.693 228.522 212.99 228.522C212.536 228.522 211.789 228.178 210.749 227.49C209.709 226.801 208.903 226.457 208.332 226.457C207.541 226.457 206.809 226.926 206.135 227.863V226.347C206.135 226.274 206.208 226.098 206.354 225.82C206.926 224.721 207.578 224.172 208.31 224.172C208.75 224.172 209.489 224.516 210.529 225.205C211.569 225.893 212.368 226.237 212.924 226.237C213.686 226.237 214.418 225.776 215.122 224.853V226.347ZM250.388 241.75C250.388 244.943 249.252 247.675 246.982 249.946C244.726 252.202 241.987 253.33 238.764 253.33C235.542 253.33 232.802 252.202 230.546 249.946C228.276 247.675 227.141 244.943 227.141 241.75C227.141 238.557 228.276 235.825 230.546 233.554C232.832 231.269 235.571 230.126 238.764 230.126C241.972 230.126 244.711 231.269 246.982 233.554C249.252 235.825 250.388 238.557 250.388 241.75ZM246.652 241.75C246.652 239.597 245.876 237.751 244.323 236.213C242.771 234.66 240.917 233.884 238.764 233.884C236.625 233.884 234.78 234.66 233.227 236.213C231.674 237.751 230.898 239.597 230.898 241.75C230.898 243.903 231.674 245.756 233.227 247.309C234.78 248.847 236.625 249.616 238.764 249.616C240.903 249.616 242.756 248.847 244.323 247.309C245.876 245.756 246.652 243.903 246.652 241.75Z" fill="white"/>
</g>
</svg>
