<svg width="48" height="48" viewBox="0 0 48 48" fill="none" xmlns="http://www.w3.org/2000/svg">
<g filter="url(#filter0_d_203_234)">
<path d="M39.64 9.58324C37.6082 7.54622 34.915 6.30295 32.0468 6.07799C29.1785 5.85303 26.3244 6.66122 24 8.35658C21.5613 6.54272 18.5259 5.72022 15.5051 6.05473C12.4843 6.38924 9.70247 7.8559 7.71974 10.1594C5.73701 12.4628 4.7007 15.432 4.81949 18.4689C4.93829 21.5059 6.20336 24.385 8.35996 26.5266L20.2625 38.4482C21.2592 39.4292 22.6015 39.9789 24 39.9789C25.3984 39.9789 26.7408 39.4292 27.7375 38.4482L39.64 26.5266C41.8778 24.275 43.1339 21.2294 43.1339 18.0549C43.1339 14.8804 41.8778 11.8348 39.64 9.58324ZM36.9375 23.8816L25.035 35.7841C24.8995 35.9208 24.7383 36.0294 24.5607 36.1035C24.383 36.1776 24.1924 36.2157 24 36.2157C23.8075 36.2157 23.6169 36.1776 23.4393 36.1035C23.2616 36.0294 23.1004 35.9208 22.965 35.7841L11.0625 23.8241C9.55933 22.2876 8.71763 20.2236 8.71763 18.0741C8.71763 15.9246 9.55933 13.8606 11.0625 12.3241C12.5942 10.8118 14.66 9.96383 16.8125 9.96383C18.9649 9.96383 21.0307 10.8118 22.5625 12.3241C22.7406 12.5037 22.9526 12.6463 23.1862 12.7436C23.4198 12.8409 23.6703 12.891 23.9233 12.891C24.1763 12.891 24.4268 12.8409 24.6604 12.7436C24.894 12.6463 25.1059 12.5037 25.2841 12.3241C26.8158 10.8118 28.8817 9.96383 31.0341 9.96383C33.1866 9.96383 35.2524 10.8118 36.7841 12.3241C38.3079 13.8404 39.1772 15.8933 39.2059 18.0428C39.2346 20.1923 38.4203 22.2676 36.9375 23.8241V23.8816Z" fill="white"/>
</g>
<defs>
<filter id="filter0_d_203_234" x="-3" y="0" width="54" height="54" filterUnits="userSpaceOnUse" color-interpolation-filters="sRGB">
<feFlood flood-opacity="0" result="BackgroundImageFix"/>
<feColorMatrix in="SourceAlpha" type="matrix" values="0 0 0 0 0 0 0 0 0 0 0 0 0 0 0 0 0 0 127 0" result="hardAlpha"/>
<feOffset dy="4"/>
<feGaussianBlur stdDeviation="2"/>
<feComposite in2="hardAlpha" operator="out"/>
<feColorMatrix type="matrix" values="0 0 0 0 0 0 0 0 0 0 0 0 0 0 0 0 0 0 1 0"/>
<feBlend mode="normal" in2="BackgroundImageFix" result="effect1_dropShadow_203_234"/>
<feBlend mode="normal" in="SourceGraphic" in2="effect1_dropShadow_203_234" result="shape"/>
</filter>
</defs>
</svg>
